<?xml version="1.0" encoding="utf-8"?>
<!-- Generator: Adobe Illustrator 27.6.1, SVG Export Plug-In . SVG Version: 6.00 Build 0)  -->
<svg version="1.1" id="Layer_1" xmlns="http://www.w3.org/2000/svg" xmlns:xlink="http://www.w3.org/1999/xlink" x="0px" y="0px"
	 viewBox="0 0 811.96 290.93" style="enable-background:new 0 0 811.96 290.93;" xml:space="preserve">
<style type="text/css">
	.st0{fill:#FFFFFF;}
	.st1{font-family:'Aleo-Bold';}
	.st2{font-size:96.2367px;}
	.st3{font-family:'Aleo-Regular';}
	.st4{opacity:0.3;}
</style>
<text transform="matrix(1 0 0 1 229.5851 130.0224)"><tspan x="0" y="0" class="st0 st1 st2">Haemat </tspan><tspan x="0" y="102.16" class="st0 st3 st2">Task Force</tspan></text>
<g>
	<path class="st0" d="M148.57,52.38c3.58,15.96-6.45,31.8-22.41,35.38c-15.96,3.59-31.8-6.45-35.38-22.41
		c-3.58-15.96,6.45-31.8,22.41-35.38C129.15,26.39,144.99,36.42,148.57,52.38z M164.39,12.46c16.08,44.39,9.04,79.83-15.08,90.96
		C122.67,115.71,9.1,94.45,9.1,94.45c22.56,4.31,40.89,11.39,55.79,20.19c-0.09,0.02-0.18,0.04-0.28,0.06
		c0.11-0.02,0.21-0.03,0.32-0.04c50.34,29.75,61.41,79.34,63.09,109.87c0.11,11.49-2.06,34.82-20.56,40.63
		c-11.58,3.16-36.17,6.78-58.31-10.28c0,0,33.71,14.07,59.37,2.91c-1.62-1.91-3.17-3.89-4.71-5.85
		c-5.75-7.29-12.79-15.92-21.89-18.47c-12.49-3.51-37.2,1.7-49.81-0.06c-8.29-1.15-21.04-5.7-23.23-14.92
		c9.7,43.18,52.47,70.9,95.65,61.21c4.41-0.99,8.65-2.34,12.71-3.99c14.68-5.76,27.89-15.54,37.67-29.24
		C233.55,144.69,164.39,12.46,164.39,12.46z"/>
	<g class="st4">
		<path class="st0" d="M149.31,103.42C122.67,115.71,9.1,94.45,9.1,94.45c22.56,4.31,40.89,11.39,55.79,20.19
			c-0.09,0.02-0.18,0.04-0.28,0.06c0.11-0.02,0.21-0.03,0.32-0.04c19.47,11.51,33.04,25.98,42.49,41.18
			c73.78,33.53,78.05-49.27,75.51-93.21c-8.15-30.28-18.55-50.17-18.55-50.17C180.46,56.86,173.43,92.3,149.31,103.42z"/>
		<path class="st0" d="M126.16,87.76c15.96-3.58,25.99-19.42,22.41-35.38c-3.58-15.96-19.42-25.99-35.38-22.41
			C97.23,33.55,87.2,49.39,90.78,65.35C94.36,81.31,110.2,91.34,126.16,87.76z"/>
	</g>
</g>
<g>
	<path class="st0" d="M96.9,176.78H85.88v-11.02c0-2.6-2.11-4.72-4.72-4.72H67.34c-2.61,0-4.72,2.12-4.72,4.72v11.02H51.6
		c-2.6,0-4.72,2.12-4.72,4.72v13.82c0,2.61,2.11,4.72,4.72,4.72h11.02v11.02c0,2.61,2.11,4.72,4.72,4.72h13.82
		c2.61,0,4.72-2.12,4.72-4.72v-11.02H96.9c2.61,0,4.73-2.11,4.73-4.72V181.5C101.62,178.89,99.51,176.78,96.9,176.78z"/>
	<path class="st0" d="M50.37,139.41H43.8v-6.58c0-1.55-1.26-2.81-2.82-2.81h-8.24c-1.56,0-2.82,1.26-2.82,2.81v6.58h-6.57
		c-1.56,0-2.82,1.26-2.82,2.81v8.24c0,1.55,1.26,2.82,2.82,2.82h6.57v6.57c0,1.56,1.26,2.82,2.82,2.82h8.24
		c1.56,0,2.82-1.26,2.82-2.82v-6.57h6.57c1.56,0,2.82-1.26,2.82-2.82v-8.24C53.19,140.67,51.93,139.41,50.37,139.41z"/>
</g>
</svg>
